<svg width="72" height="28" viewBox="0 0 72 28" fill="none" xmlns="http://www.w3.org/2000/svg">
<g opacity="0.5">
<path d="M42.6483 19.7371C42.21 19.7371 41.8735 19.6039 41.6405 19.3368C41.4069 19.0704 41.2898 18.6996 41.2898 18.2255V10.0658C41.2898 9.05827 41.7422 8.5542 42.6483 8.5542C43.5685 8.5542 44.0286 9.05827 44.0286 10.0658V18.2249C44.0286 18.6996 43.9115 19.0698 43.6779 19.3362C43.4437 19.6039 43.1007 19.7371 42.6483 19.7371Z" fill="#04045B"/>
<path d="M47.0809 19.7592C46.1748 19.7592 45.7224 19.2852 45.7224 18.3365V9.9325C45.7224 8.9988 46.1677 8.53195 47.059 8.53195C47.9496 8.53195 48.3956 8.9988 48.3956 9.9325V10.3994C48.7605 9.7771 49.2534 9.30242 49.8744 8.9766C50.4954 8.65078 51.1923 8.48755 51.9671 8.48755C54.4943 8.48755 55.7581 9.9769 55.7581 12.9563V18.3365C55.7581 19.2852 55.3051 19.7592 54.3997 19.7592C53.4794 19.7592 53.0193 19.2852 53.0193 18.3365V13.0895C53.0193 12.2446 52.8623 11.8907 52.5482 11.5054C52.2342 11.1202 51.7483 10.9276 51.0913 10.9276C50.2875 10.9276 49.6485 11.1829 49.1742 11.6948C48.6993 12.206 48.4619 12.6233 48.4619 13.4682V18.3371C48.4612 19.2852 48.0011 19.7592 47.0809 19.7592Z" fill="#04045B"/>
<path d="M62.3819 23.8055C62.1631 23.8055 60.2885 23.7474 59.329 23.2302C58.56 22.8156 58.6282 21.9537 58.7415 21.7298C58.914 21.3896 59.1978 20.9998 59.9365 21.0723C60.99 21.1748 61.5569 21.5241 62.1625 21.545C64.1188 21.6116 65.0989 20.738 65.0989 18.8255V17.6959C64.7919 18.3038 64.4611 18.8464 63.826 19.2022C63.1908 19.5581 62.3452 19.675 61.5711 19.675C60.6071 19.675 59.822 19.2845 59.1064 18.8327C58.3908 18.3808 57.6887 17.4354 57.3856 16.7361C57.0259 15.9049 56.7942 14.9725 56.7942 13.8906C56.7942 12.8087 56.9911 11.8639 57.3856 11.0562C57.7801 10.2485 58.3348 9.61905 59.051 9.16656C59.7666 8.71473 60.6071 8.48816 61.5711 8.48816C62.3452 8.48816 63.0467 8.65858 63.6747 8.99941C64.3028 9.34025 64.7629 9.8071 65.0551 10.4V9.93311C65.0551 9.4741 65.1754 9.12543 65.4168 8.88841C65.6581 8.65139 65.9902 8.53256 66.4136 8.53256C67.319 8.53256 67.7721 8.99941 67.7721 9.93311V18.4925C67.7721 20.4356 67.3119 21.5829 66.3917 22.4722C65.4715 23.3608 64.1349 23.8055 62.3819 23.8055ZM62.3156 17.2023C63.1258 17.2023 63.7681 16.9189 64.243 16.3522C64.7179 15.7854 64.9554 15.013 64.9554 14.0349C64.9554 13.0568 64.7179 12.2883 64.243 11.728C63.7681 11.1685 63.1252 10.8884 62.3156 10.8884C61.5054 10.8884 60.8626 11.1685 60.3883 11.728C59.9134 12.2883 59.6759 13.0568 59.6759 14.0349C59.6759 15.013 59.9134 15.7854 60.3883 16.3522C60.8632 16.9189 61.5054 17.2023 62.3156 17.2023Z" fill="#04045B"/>
<path d="M42.654 7.15818C43.4175 7.15818 44.0363 6.53025 44.0363 5.75566C44.0363 4.98108 43.4175 4.35315 42.654 4.35315C41.8906 4.35315 41.2718 4.98108 41.2718 5.75566C41.2718 6.53025 41.8906 7.15818 42.654 7.15818Z" fill="#04045B"/>
<path d="M35.3275 8.46076C33.8912 8.49471 32.682 9.1594 31.8403 10.2204V9.93183C31.8403 8.99812 31.3872 8.53127 30.4818 8.53127C29.5905 8.53127 29.1452 8.99812 29.1452 9.93183V22.3599C29.1452 23.2936 29.5976 23.7604 30.5037 23.7604C31.4239 23.7604 31.884 23.2936 31.884 22.3599V18.1256C32.6762 19.1095 33.7947 19.7566 35.1647 19.7566C37.7974 19.7566 40.0941 17.4472 40.0941 14.2895C40.0941 11.1319 38.2813 8.39154 35.3275 8.46076ZM34.5283 17.278C33.0147 17.278 31.7875 15.8129 31.7875 14.0049C31.7875 12.1975 33.0147 10.7317 34.5283 10.7317C36.0418 10.7317 37.269 12.1969 37.269 14.0049C37.269 15.8129 36.0418 17.278 34.5283 17.278Z" fill="#04045B"/>
<path d="M14.6524 21.2232C8.94369 21.2232 4.29874 16.5109 4.29874 10.7187C4.29874 9.56818 5.21833 8.63513 6.35222 8.63513C7.48611 8.63513 8.4057 9.56818 8.4057 10.7187C8.4057 14.2132 11.2076 17.0567 14.6524 17.0567C18.0972 17.0567 20.8991 14.2138 20.8991 10.7187C20.8991 9.56818 21.8187 8.63513 22.9526 8.63513C24.0864 8.63513 25.006 9.56818 25.006 10.7187C25.0054 16.5109 20.3611 21.2232 14.6524 21.2232Z" fill="#5900CC"/>
<path d="M6.3458 12.8008C7.4824 12.8008 8.40379 11.866 8.40379 10.7127C8.40379 9.55951 7.4824 8.62463 6.3458 8.62463C5.2092 8.62463 4.28781 9.55951 4.28781 10.7127C4.28781 11.866 5.2092 12.8008 6.3458 12.8008Z" fill="#C028B9"/>
<path d="M22.9416 12.8008C24.0782 12.8008 24.9996 11.866 24.9996 10.7127C24.9996 9.55951 24.0782 8.62463 22.9416 8.62463C21.805 8.62463 20.8836 9.55951 20.8836 10.7127C20.8836 11.866 21.805 12.8008 22.9416 12.8008Z" fill="#C028B9"/>
</g>
</svg>
