<svg width="38" height="38" viewBox="0 0 38 38" fill="none" xmlns="http://www.w3.org/2000/svg">
<g filter="url(#filter0_d_1_13677)">
<rect x="2" y="1" width="34" height="34" rx="17" fill="#EEE6FA"/>
<path d="M20.355 15.6708L22.335 13.68V22.68C22.335 22.871 22.4109 23.0541 22.5459 23.1891C22.6809 23.3242 22.864 23.4 23.055 23.4C23.246 23.4 23.4291 23.3242 23.5641 23.1891C23.6991 23.0541 23.775 22.871 23.775 22.68V13.68L25.7586 15.6708C25.824 15.7383 25.9023 15.7919 25.9889 15.8284C26.0755 15.8649 26.1686 15.8836 26.2626 15.8832C26.4502 15.8815 26.6298 15.8066 26.763 15.6744C26.8987 15.5415 26.9763 15.3603 26.979 15.1704C26.9792 14.9803 26.9041 14.7978 26.7702 14.6628L23.5662 11.448C23.4992 11.3754 23.4168 11.3188 23.325 11.2824C23.2854 11.2667 23.2444 11.2546 23.2026 11.2464C23.156 11.2407 23.1088 11.2407 23.0622 11.2464C22.8738 11.2463 22.6929 11.3199 22.5582 11.4516L19.347 14.6916C19.2613 14.8311 19.2257 14.9955 19.246 15.1579C19.2663 15.3203 19.3414 15.471 19.4588 15.585C19.5762 15.699 19.7289 15.7697 19.8918 15.7853C20.0547 15.8009 20.2181 15.7605 20.355 15.6708Z" fill="#5900CC"/>
<path d="M11.5421 21.3876L14.7533 24.6276C14.7734 24.6463 14.795 24.6632 14.8181 24.678C14.9422 24.7822 15.0989 24.8395 15.2609 24.84C15.3579 24.8396 15.4538 24.8196 15.5429 24.7813C15.632 24.7429 15.7124 24.687 15.7793 24.6168L18.9689 21.3876C19.0765 21.2496 19.1301 21.0771 19.1198 20.9025C19.1095 20.7278 19.0359 20.5629 18.9129 20.4386C18.7898 20.3142 18.6257 20.2389 18.4512 20.2267C18.2767 20.2145 18.1037 20.2663 17.9645 20.3724L15.9773 22.3704L15.9773 13.3704C15.9773 13.1794 15.9015 12.9963 15.7665 12.8612C15.6314 12.7262 15.4483 12.6504 15.2573 12.6504C15.0664 12.6504 14.8833 12.7262 14.7482 12.8612C14.6132 12.9963 14.5373 13.1794 14.5373 13.3704L14.5373 22.3704L12.5609 20.3724C12.426 20.2385 12.2435 20.1634 12.0533 20.1636C11.8632 20.1634 11.6807 20.2385 11.5457 20.3724C11.4783 20.4378 11.4247 20.5161 11.3882 20.6027C11.3517 20.6893 11.333 20.7824 11.3333 20.8764C11.3328 20.9711 11.351 21.0651 11.3868 21.1528C11.4226 21.2405 11.4754 21.3203 11.5421 21.3876Z" fill="#5900CC"/>
</g>
<defs>
<filter id="filter0_d_1_13677" x="0" y="0" width="38" height="38" filterUnits="userSpaceOnUse" color-interpolation-filters="sRGB">
<feFlood flood-opacity="0" result="BackgroundImageFix"/>
<feColorMatrix in="SourceAlpha" type="matrix" values="0 0 0 0 0 0 0 0 0 0 0 0 0 0 0 0 0 0 127 0" result="hardAlpha"/>
<feOffset dy="1"/>
<feGaussianBlur stdDeviation="1"/>
<feColorMatrix type="matrix" values="0 0 0 0 0 0 0 0 0 0 0 0 0 0 0 0 0 0 0.05 0"/>
<feBlend mode="normal" in2="BackgroundImageFix" result="effect1_dropShadow_1_13677"/>
<feBlend mode="normal" in="SourceGraphic" in2="effect1_dropShadow_1_13677" result="shape"/>
</filter>
</defs>
</svg>
