<svg width="24" height="24" viewBox="0 0 24 24" fill="none" xmlns="http://www.w3.org/2000/svg">
<g clip-path="url(#clip0_1_13946)">
<path d="M12 24C18.6274 24 24 18.6274 24 12C24 5.37258 18.6274 0 12 0C5.37258 0 0 5.37258 0 12C0 18.6274 5.37258 24 12 24Z" fill="#5900CC"/>
<path d="M11.6778 17.0001C7.99974 17.0001 5.00705 14.0078 5.00705 10.3298C5.00705 9.5992 5.59953 9.00671 6.33009 9.00671C7.06064 9.00671 7.65312 9.5992 7.65312 10.3298C7.65312 12.5488 9.45836 14.3544 11.6778 14.3544C13.8972 14.3544 15.7025 12.5492 15.7025 10.3298C15.7025 9.5992 16.2949 9.00671 17.0255 9.00671C17.756 9.00671 18.3485 9.5992 18.3485 10.3298C18.3481 14.0078 15.3558 17.0001 11.6778 17.0001Z" fill="white"/>
<path d="M6.32594 11.6519C7.05823 11.6519 7.65188 11.0582 7.65188 10.3259C7.65188 9.59364 7.05823 9 6.32594 9C5.59364 9 5 9.59364 5 10.3259C5 11.0582 5.59364 11.6519 6.32594 11.6519Z" fill="#C028B9"/>
<path d="M17.0185 11.6519C17.7508 11.6519 18.3444 11.0582 18.3444 10.3259C18.3444 9.59364 17.7508 9 17.0185 9C16.2862 9 15.6926 9.59364 15.6926 10.3259C15.6926 11.0582 16.2862 11.6519 17.0185 11.6519Z" fill="#C028B9"/>
</g>
<defs>
<clipPath id="clip0_1_13946">
<rect width="24" height="24" fill="white"/>
</clipPath>
</defs>
</svg>
